<?xml version="1.0" standalone="no"?>
<!DOCTYPE svg PUBLIC "-//W3C//DTD SVG 20010904//EN"
 "http://www.w3.org/TR/2001/REC-SVG-20010904/DTD/svg10.dtd">
<svg version="1.0" xmlns="http://www.w3.org/2000/svg"
 width="512.000000pt" height="512.000000pt" viewBox="0 0 512.000000 512.000000"
 preserveAspectRatio="xMidYMid meet">

<g transform="translate(0.000000,512.000000) scale(0.100000,-0.100000)"
fill="#000000" stroke="none">
<path d="M2354 2618 c-213 -796 -326 -1235 -320 -1239 15 -9 398 -111 401
-107 1 2 150 557 332 1233 214 801 326 1232 319 1236 -10 6 -386 109 -397 109
-2 0 -153 -555 -335 -1232z"/>
<path d="M815 3160 l-600 -600 602 -602 603 -603 150 150 150 150 -452 452
-453 453 453 453 452 452 -148 148 c-81 81 -149 147 -152 147 -3 0 -275 -270
-605 -600z"/>
<path d="M3547 3613 l-147 -148 452 -452 453 -453 -453 -453 -452 -452 150
-150 150 -150 603 603 602 602 -600 600 c-330 330 -602 600 -605 600 -3 0 -71
-66 -153 -147z"/>
</g>
</svg>
